<svg id="Logo" xmlns="http://www.w3.org/2000/svg" width="2625" height="988.866" viewBox="0 0 2625 988.866">
  <g id="Group_87" data-name="Group 87">
    <path id="Path_119" data-name="Path 119" d="M58.691,463.12c.3-7.954.712-15.719,1.336-24.717.61-9.083,1.322-18.588,1.83-24.4L63.4,396.532l.2-2.752H73.635c3.485,0,4.2.608,6.361,5.722,4.4,10.2,10.95,27.064,14.741,37.77,2.353,6.549,4.081,11.852,5.01,15.126a56.549,56.549,0,0,1,1.118,5.723c.523-3.985,1.031-6.129,3.18-12.663,2.759-8.49,6.245-17.776,11.778-31.772,2.658-6.839,6.23-15.416,6.956-16.85,1.22-2.346,2.556-3.056,5.214-3.056h9.324l.3,2.752,1.539,17.473c.508,6.534,1.438,18.066,2.048,27.773.407,7.244.813,14.5,1.118,21.341l.2,3.579h-9.919l-.116-1.839c-.407-8.882-.61-15.634-1.118-24.413-.61-12.055-.929-18.893-1.336-23.993-.407-5.824-.508-7.968-.508-10.112,0-1.435,0-3.275.1-5.824a78.3,78.3,0,0,1-4.1,12.257c-1.539,3.375-3.282,8.07-6.651,16.95-4.4,11.432-8.394,22.674-12.286,34l-1.031,2.97H95.245l-1.031-2.97c-3.587-10.315-6.245-17.661-9.106-25.527-1.539-3.984-3.282-8.78-5.33-14.1-1.844-4.9-3.369-8.678-4.5-11.33a89.41,89.41,0,0,1-4.2-12.257c.1,2.752.2,4.693.2,6.128,0,2.246-.1,4.188-.508,9.808-.407,5.1-.813,11.735-1.539,27.266-.407,6.737-.61,12.141-.915,21.14l-.1,1.839h-9.73Z" transform="translate(-58.488 520.53)" fill="#009c54"/>
    <path id="Path_120" data-name="Path 120" d="M101.622,393.681c21.392,0,35.015,14.6,35.015,37.6,0,23.383-14.131,38.393-36.031,38.393-21.291,0-35.015-14.6-35.015-37.278,0-23.383,14.232-38.712,36.031-38.712m-.407,67.514c15.452,0,24.878-11.142,24.878-29.411,0-18.486-9.222-29.613-24.674-29.613-15.757,0-25.284,11.228-25.284,29.512s9.411,29.512,25.081,29.512" transform="translate(37.565 519.195)" fill="#009c54"/>
    <path id="Path_121" data-name="Path 121" d="M71.884,394.577l2.149-.217c5.635-.3,13.1-.608,17.515-.608,8.9,0,14.639,1.333,19.141,4.39,4.4,2.969,6.753,7.968,6.753,13.69,0,8.678-4.807,14.706-13.724,17.053,10.442,1.84,16.28,8.374,16.28,18.081,0,7.563-3.791,13.576-10.747,17.053-4.807,2.246-11.473,3.376-20.986,3.376-3.282,0-8.089-.2-14.334-.406l-2.048-.117Zm10.137,31.352h5.01c7.479,0,11.27-.709,14.639-2.752a11.324,11.324,0,0,0,5.228-9.91,10.57,10.57,0,0,0-4.3-9c-2.861-2.028-6.346-2.854-12.185-2.854a66.054,66.054,0,0,0-8.394.506Zm0,33.4c3.369.2,5.417.405,8.191.405,7.261,0,11.458-.912,14.842-3.361,2.875-1.941,4.4-5.418,4.4-9.4a11.875,11.875,0,0,0-5.214-10.213c-3.485-2.247-7.479-3.072-14.537-3.072-2.469,0-4.415.116-7.683.319Z" transform="translate(122.664 520.139)" fill="#009c54"/>
    <rect id="Rectangle_146" data-name="Rectangle 146" width="10.137" height="72.918" transform="translate(262.515 914.31)" fill="#009c54"/>
    <path id="Path_122" data-name="Path 122" d="M78.882,393.78H89.019v64.443h32.967V466.7h-43.1Z" transform="translate(217.302 520.527)" fill="#009c54"/>
    <rect id="Rectangle_147" data-name="Rectangle 147" width="10.137" height="72.918" transform="translate(356.971 914.31)" fill="#009c54"/>
    <path id="Path_123" data-name="Path 123" d="M109.5,402.256H84.823V393.78h59.384v8.476H119.635V466.7H109.5Z" transform="translate(297.638 520.527)" fill="#009c54"/>
    <path id="Path_124" data-name="Path 124" d="M117.411,438.5l-1.22-1.739c-9.73-14.3-16.7-25.528-25.4-40.958l-1.118-2.028h11.981l.508,1.014c3.166,5.824,5.722,10.315,9.512,16.748,3.486,5.926,7.073,11.75,9.73,16.039l1.539,2.143,1.423-2.245c3.791-5.419,7.276-10.823,10.442-15.836,1.336-2.145,3.181-5.1,5.432-8.779,2.15-3.579,3.689-6.23,4.705-8.07l.625-1.014h11.154l-1.031,1.724c-7.871,13.386-17.3,27.788-26.809,41.16l-1.336,1.84V466.7H117.411Z" transform="translate(363.208 520.53)" fill="#009c54"/>
    <path id="Path_125" data-name="Path 125" d="M97.058,394.469l1.525-.1c5.228-.406,12.2-.608,16.8-.608,9.309,0,15.438,1.318,20.172,4.491,5.315,3.462,8.162,9.186,8.162,16.14,0,6.331-2.44,11.837-6.942,15.415-2.352,1.84-4.6,2.854-8.8,4.187l1.22,1.637c5.722,7.447,11.56,14.6,18.212,22.472,1.844,2.042,4.313,4.9,6.157,6.939.915.912,1.235,1.231,2.135,2.144H141.992c-1.525-1.738-2.251-2.549-3.892-4.592-3.79-4.491-6.129-7.563-9.919-12.46-1.235-1.738-3.065-4.085-5.243-7.055-1.931-2.651-3.456-4.7-4.386-5.912l-.915-1.333c-1.757,0-3.18.1-3.994.1-1.133,0-2.774-.1-4.822-.2h-1.627v31.251H97.058Zm10.137,33.293h1.83a20.6,20.6,0,0,0,5.228.507c6.042,0,9.832-.608,12.78-2.347a12,12,0,0,0,6.172-11.025c0-8.881-6.056-13.489-17.732-13.489a38.408,38.408,0,0,0-8.278.725Z" transform="translate(463.087 520.247)" fill="#009c54"/>
    <path id="Path_126" data-name="Path 126" d="M102.075,393.794h42.276v8.474H112.212v22.168h31.021v8.476H112.212v25.121h32.967v8.476h-43.1Z" transform="translate(530.933 520.717)" fill="#009c54"/>
    <path id="Path_127" data-name="Path 127" d="M130.632,402.256H105.958V393.78h59.384v8.476H140.769V466.7H130.632Z" transform="translate(583.442 520.527)" fill="#009c54"/>
    <path id="Path_128" data-name="Path 128" d="M111.062,463.641c6.652-18.689,15.859-41.479,27.23-67.413l1.133-2.448h11.255l1.133,2.563c9.106,22.254,16.571,42.479,24.762,66.979l1.133,3.376H166.554l-.624-1.839c-2.15-7.042-3.689-11.75-7.262-22.152l-.523-1.537H129.594l-.625,1.739c-2.556,6.737-5.925,16.125-7.872,22.051l-.61,1.739H110.031ZM155.386,433.3l-.813-2.347c-2.149-6.331-3.18-9.4-4.72-13.691-1.438-4.39-2.861-8.374-3.79-10.721l-1.423-3.882-1.54,3.984-2.962,7.259c-.3.912-.712,1.839-1.946,5-.93,2.55-1.743,4.592-2.556,6.737-1.133,2.97-1.539,3.883-1.961,5.013l-.915,2.651Z" transform="translate(638.519 520.53)" fill="#009c54"/>
    <rect id="Rectangle_148" data-name="Rectangle 148" width="10.137" height="72.918" transform="translate(833.712 914.31)" fill="#009c54"/>
    <path id="Path_129" data-name="Path 129" d="M118.214,393.78H128.35v64.443h32.967V466.7h-43.1Z" transform="translate(749.169 520.527)" fill="#009c54"/>
    <path id="Path_130" data-name="Path 130" d="M124.72,463.641c6.651-18.689,15.858-41.479,27.23-67.413l1.133-2.448h11.255l1.133,2.563c9.106,22.254,16.57,42.479,24.761,66.979l1.133,3.376H180.211l-.624-1.839c-2.15-7.042-3.689-11.75-7.262-22.152l-.523-1.537H143.251l-.624,1.739c-2.556,6.737-5.925,16.125-7.871,22.051l-.61,1.739H123.689ZM169.044,433.3l-.814-2.347c-2.149-6.331-3.18-9.4-4.72-13.691-1.438-4.39-2.861-8.374-3.791-10.721l-1.423-3.882-1.539,3.984-2.963,7.259c-.3.912-.712,1.839-1.946,5-.929,2.55-1.743,4.592-2.556,6.737-1.133,2.97-1.54,3.883-1.961,5.013l-.915,2.651Z" transform="translate(823.214 520.53)" fill="#009c54"/>
    <path id="Path_131" data-name="Path 131" d="M129.553,393.78h9.832a5.393,5.393,0,0,1,4.807,2.448l32.153,50.259c2.135,3.361,3.471,6.317,6.042,13.257a79.373,79.373,0,0,1-1.235-14.184V393.78h9.513V466.7h-9.934a5.129,5.129,0,0,1-4.705-2.449l-32.139-50.36c-2.149-3.362-3.587-6.317-6.042-13.155a79.232,79.232,0,0,1,1.235,14.183V466.7h-9.527Z" transform="translate(902.511 520.53)" fill="#009c54"/>
    <path id="Path_132" data-name="Path 132" d="M135.388,394.571l2.048-.1c7.174-.508,11.778-.725,17.21-.725,14.624,0,23.948,2.464,31.326,8.186,7.668,6.012,11.865,15.922,11.865,27.773,0,12.46-4.6,22.876-12.9,29.309-7.784,5.926-17.5,8.578-31.834,8.578-3.18,0-8.292-.1-12.911-.3-1.626-.1-2.556-.2-4.807-.3Zm10.137,64.138a70.25,70.25,0,0,0,8.7.406c11.575,0,18.735-2.042,24.573-6.939,5.533-4.81,8.5-12.358,8.5-21.862,0-8.578-2.556-15.619-7.479-20.313-5.519-5.419-13-7.766-24.253-7.766-3.064,0-5.736.1-10.035.406Z" transform="translate(981.417 520.045)" fill="#009c54"/>
    <path id="Path_133" data-name="Path 133" d="M167.017,402.256H142.343V393.78h59.383v8.476H177.154V466.7H167.017Z" transform="translate(1075.472 520.527)" fill="#009c54"/>
    <path id="Path_134" data-name="Path 134" d="M147.488,393.794h42.276v8.474H157.625v22.168h31.021v8.476H157.625v25.121h32.967v8.476h-43.1Z" transform="translate(1145.045 520.717)" fill="#009c54"/>
    <path id="Path_135" data-name="Path 135" d="M211.923,464.469a50.314,50.314,0,0,1-21.6,4.491c-23.658,0-38.7-14.5-38.7-37.176,0-22.978,15.67-38.089,39.415-38.089a49.558,49.558,0,0,1,20.884,4.389v9.606a36.762,36.762,0,0,0-20.274-5.52c-18.212,0-29.481,11.141-29.481,29.107s11.27,29.207,29.6,29.207a35.913,35.913,0,0,0,20.157-5.622Z" transform="translate(1200.987 519.384)" fill="#009c54"/>
    <path id="Path_136" data-name="Path 136" d="M157.171,393.78h10.137v30.744h38.18V393.78h10.137V466.7H205.489V433h-38.18v33.7H157.171Z" transform="translate(1275.988 520.527)" fill="#009c54"/>
    <path id="Path_137" data-name="Path 137" d="M162.823,393.78h9.832a5.393,5.393,0,0,1,4.807,2.448l32.154,50.259c2.135,3.361,3.471,6.317,6.042,13.257a79.354,79.354,0,0,1-1.234-14.184V393.78h9.512V466.7h-9.919a5.138,5.138,0,0,1-4.72-2.449l-32.139-50.36c-2.149-3.362-3.587-6.317-6.042-13.155a79.244,79.244,0,0,1,1.235,14.183V466.7h-9.527Z" transform="translate(1352.416 520.53)" fill="#009c54"/>
    <rect id="Rectangle_149" data-name="Rectangle 149" width="10.137" height="72.918" transform="translate(1599.98 914.31)" fill="#009c54"/>
    <path id="Path_138" data-name="Path 138" d="M231.05,464.469a50.316,50.316,0,0,1-21.6,4.491c-23.657,0-38.7-14.5-38.7-37.176,0-22.978,15.67-38.089,39.415-38.089a49.559,49.559,0,0,1,20.884,4.389v9.606a36.764,36.764,0,0,0-20.274-5.52c-18.226,0-29.481,11.141-29.481,29.107s11.255,29.207,29.6,29.207a35.915,35.915,0,0,0,20.158-5.622Z" transform="translate(1459.625 519.384)" fill="#009c54"/>
    <path id="Path_139" data-name="Path 139" d="M176.863,463.641c6.651-18.689,15.859-41.479,27.23-67.413l1.133-2.448h11.255l1.133,2.563c9.106,22.254,16.571,42.479,24.762,66.979l1.133,3.376H232.355l-.625-1.839c-2.149-7.042-3.689-11.75-7.261-22.152l-.523-1.537H195.394l-.625,1.739c-2.556,6.737-5.925,16.125-7.872,22.051l-.61,1.739H175.832ZM221.187,433.3l-.813-2.347c-2.149-6.331-3.18-9.4-4.72-13.691-1.438-4.39-2.861-8.374-3.791-10.721l-1.423-3.882-1.54,3.984-2.962,7.259c-.3.912-.711,1.839-1.946,5-.929,2.55-1.743,4.592-2.556,6.737-1.133,2.97-1.54,3.883-1.96,5.013l-.915,2.651Z" transform="translate(1528.334 520.53)" fill="#009c54"/>
    <path id="Path_140" data-name="Path 140" d="M181.7,393.78h10.137v64.443H224.8V466.7H181.7Z" transform="translate(1607.628 520.527)" fill="#009c54"/>
    <path id="Path_141" data-name="Path 141" d="M187.609,394.571l2.033-.1c7.174-.508,11.793-.725,17.21-.725,14.624,0,23.948,2.464,31.34,8.186,7.668,6.012,11.851,15.922,11.851,27.773,0,12.46-4.589,22.876-12.9,29.309-7.784,5.926-17.515,8.578-31.849,8.578-3.166,0-8.264-.1-12.9-.3-1.626-.1-2.541-.2-4.792-.3Zm10.137,64.138a70.128,70.128,0,0,0,8.7.406c11.56,0,18.72-2.042,24.573-6.939,5.533-4.81,8.481-12.358,8.481-21.862,0-8.578-2.541-15.619-7.479-20.313-5.5-5.419-12.983-7.766-24.253-7.766-3.064,0-5.737.1-10.021.406Z" transform="translate(1687.592 520.045)" fill="#009c54"/>
    <rect id="Rectangle_150" data-name="Rectangle 150" width="10.137" height="72.918" transform="translate(1957.894 914.31)" fill="#009c54"/>
    <path id="Path_142" data-name="Path 142" d="M195.431,453.646c6.971,5.1,12.286,7.143,18.938,7.143,8.8,0,14.436-4.389,14.436-11.125,0-6.23-3.166-9.5-13.826-14.605-7.363-3.563-10.544-5.519-13.506-8.271a17.181,17.181,0,0,1-5.33-12.866c0-12.054,9.832-20.225,24.268-20.225a35.5,35.5,0,0,1,17.4,4.287v10.012c-5.737-3.983-10.747-5.823-16.789-5.823-8.7,0-14.319,4.186-14.319,10.72,0,3.478,1.322,5.94,4.6,8.491a57.5,57.5,0,0,0,9.614,5.3c7.276,3.579,10.442,5.621,13.419,8.78a17.906,17.906,0,0,1,5.01,12.981c0,12.664-9.832,20.834-25.082,20.834a39.83,39.83,0,0,1-18.836-4.708Z" transform="translate(1793.368 519.384)" fill="#009c54"/>
    <path id="Path_143" data-name="Path 143" d="M224.051,402.256H199.377V393.78h59.384v8.476H234.188V466.7H224.051Z" transform="translate(1846.733 520.527)" fill="#009c54"/>
    <path id="Path_144" data-name="Path 144" d="M204.522,394.469l1.54-.1c5.228-.406,12.184-.608,16.788-.608,9.309,0,15.453,1.318,20.172,4.491,5.315,3.462,8.176,9.186,8.176,16.14,0,6.331-2.454,11.837-6.956,15.415-2.353,1.84-4.6,2.854-8.8,4.187l1.235,1.637c5.722,7.447,11.56,14.6,18.212,22.472,1.844,2.042,4.3,4.9,6.143,6.939.93.912,1.235,1.231,2.15,2.144H249.47c-1.54-1.738-2.251-2.549-3.892-4.592-3.79-4.491-6.143-7.563-9.934-12.46-1.234-1.738-3.064-4.085-5.228-7.055-1.932-2.651-3.471-4.7-4.386-5.912l-.929-1.333c-1.743,0-3.166.1-3.993.1-1.118,0-2.76-.1-4.808-.2h-1.641v31.251H204.522Zm10.137,33.293H216.5a20.494,20.494,0,0,0,5.214.507c6.042,0,9.832-.608,12.8-2.347,4.008-2.246,6.157-6.128,6.157-11.025,0-8.881-6.056-13.489-17.718-13.489a38.59,38.59,0,0,0-8.292.725Z" transform="translate(1916.304 520.247)" fill="#009c54"/>
    <rect id="Rectangle_151" data-name="Rectangle 151" width="10.137" height="72.918" transform="translate(2193.701 914.31)" fill="#009c54"/>
    <path id="Path_145" data-name="Path 145" d="M211.858,394.577l2.149-.217c5.635-.3,13.1-.608,17.514-.608,8.9,0,14.639,1.333,19.141,4.39,4.4,2.969,6.753,7.968,6.753,13.69,0,8.678-4.806,14.706-13.724,17.053,10.442,1.84,16.281,8.374,16.281,18.081,0,7.563-3.791,13.576-10.747,17.053-4.806,2.246-11.473,3.376-20.985,3.376-3.282,0-8.089-.2-14.334-.406l-2.047-.117Zm10.137,31.352h5.01c7.479,0,11.269-.709,14.639-2.752a11.325,11.325,0,0,0,5.228-9.91,10.571,10.571,0,0,0-4.3-9c-2.861-2.028-6.347-2.854-12.185-2.854a66.059,66.059,0,0,0-8.394.506Zm0,33.4c3.384.2,5.417.405,8.191.405,7.262,0,11.459-.912,14.843-3.361,2.875-1.941,4.4-5.418,4.4-9.4a11.875,11.875,0,0,0-5.214-10.213c-3.486-2.247-7.479-3.072-14.537-3.072-2.469,0-4.4.116-7.683.319Z" transform="translate(2015.508 520.139)" fill="#009c54"/>
    <path id="Path_146" data-name="Path 146" d="M226.618,393.78V438.4c0,8.085,1.016,12.156,3.79,15.43,3.065,3.68,8.293,5.621,15.046,5.621,7.377,0,12.9-2.362,15.873-6.751,2.15-3.159,2.963-7.041,2.963-14.3V393.78h10.137v45.956c0,9.1-1.946,15.111-6.042,19.82-4.908,5.5-12.693,8.374-23.033,8.374s-18.227-2.869-22.932-8.374c-4.2-4.709-5.94-10.722-5.94-19.82V393.78Z" transform="translate(2078.024 520.53)" fill="#009c54"/>
    <path id="Path_147" data-name="Path 147" d="M246.173,402.256H221.5V393.78h59.384v8.476H256.31V466.7H246.173Z" transform="translate(2145.881 520.527)" fill="#009c54"/>
    <rect id="Rectangle_152" data-name="Rectangle 152" width="10.137" height="72.918" transform="translate(2442.1 914.31)" fill="#009c54"/>
    <path id="Path_148" data-name="Path 148" d="M264.768,393.681c21.392,0,35.014,14.6,35.014,37.6,0,23.383-14.131,38.393-36.031,38.393-21.3,0-35.014-14.6-35.014-37.278,0-23.383,14.232-38.712,36.031-38.712m-.407,67.514c15.452,0,24.877-11.142,24.877-29.411,0-18.486-9.222-29.613-24.674-29.613-15.757,0-25.284,11.228-25.284,29.512s9.411,29.512,25.081,29.512" transform="translate(2243.76 519.195)" fill="#009c54"/>
    <path id="Path_149" data-name="Path 149" d="M235.03,393.78h9.832a5.393,5.393,0,0,1,4.807,2.448l32.154,50.259c2.135,3.361,3.471,6.317,6.041,13.257a79.4,79.4,0,0,1-1.234-14.184V393.78h9.512V466.7h-9.933a5.128,5.128,0,0,1-4.705-2.449l-32.139-50.36c-2.149-3.362-3.587-6.317-6.041-13.155a79.286,79.286,0,0,1,1.234,14.183V466.7H235.03Z" transform="translate(2328.859 520.53)" fill="#009c54"/>
    <path id="Path_150" data-name="Path 150" d="M58.785,424.131H241.772V768.946H323.1V424.131H506.088v-65.92H58.785Z" transform="translate(-54.477 40.772)" fill="#045a9f"/>
    <path id="Path_151" data-name="Path 151" d="M476.63,567.23q33.461-31.947,33.461-86.291,0-36.771-12.2-60.821-12.2-24.035-34.027-37.625-21.849-13.582-51.89-18.964-30.084-5.369-69.768-5.36H94.331V769.526h80.544V607.695H302.487l119.7,161.832h99.264L394.953,602.03q48.209-2.826,81.676-34.8M174.875,540.92V424.928H330.283q53.306,0,76.3,11.88,22.961,11.888,22.961,45.84,0,34.51-22.961,46.392-22.982,11.887-76.3,11.88Z" transform="translate(426.211 40.194)" fill="#045a9f"/>
    <path id="Path_152" data-name="Path 152" d="M329.064,358.168,126.006,769.526h85.656l43.67-94.491H493l43.089,94.491h85.089L420.964,358.168ZM288.792,606l86.222-183.331L461.237,606Z" transform="translate(854.546 40.194)" fill="#045a9f"/>
    <path id="Path_153" data-name="Path 153" d="M263.959,358.211H161.3L333.261,553.973l48.957-58.14Z" transform="translate(1331.78 40.772)" fill="#045a9f"/>
    <path id="Path_154" data-name="Path 154" d="M177.823,431.577,290.636,566.49H393.85l-168.1-193.27Z" transform="translate(1555.254 243.219)" fill="#045a9f"/>
    <rect id="Rectangle_153" data-name="Rectangle 153" width="81.328" height="410.736" transform="translate(1986.679 398.986)" fill="#045a9f"/>
    <path id="Path_155" data-name="Path 155" d="M58.995,669.083S2514.441-48.336,1890.9,735.54l-335.84,404.854h94.486c39.371-43.551,81.444-92.463,125.55-143.765l55.637-68.007c58.352-71.005,115.34-142,163.512-204.035,0,0,663.359-848.059-1935.254-55.5" transform="translate(-51.632 -330.672)" fill="#009c54"/>
    <path id="Path_156" data-name="Path 156" d="M676.392,560.779l-28.814-12.532-.218-.753-.2-.769-.218-.768-.232-.768-.2-.753-.232-.753-.232-.769-.218-.768-.232-.753-.233-.753-.493-1.507-.233-.753-.247-.752-.247-.754-.1-.275-.842-2.449-.087-.275-.276-.739-.262-.753-.261-.739-.726-1.971-.1-.246-.276-.739-.508-1.333-.944-2.332v-.015l-.291-.739-.305-.725-.3-.724-.3-.725-.3-.739-.306-.724-.319-.725-.32-.724-.32-.725-.32-.71L636,516.3l-.334-.709-.334-.71-.334-.725-.334-.71-.944-1.926-.1-.2-.349-.7-.348-.725-.349-.695-.711-1.406-.377-.695-.364-.71-.363-.681-.377-.71-.741-1.391-.77-1.376-.378-.682L648.988,449.6l-45.4-45.84L552.178,424.4l-.61-.333-.624-.348-.624-.348-1.874-1.043-.639-.333-1.017-.55-3.282-1.7-.784-.405-.639-.319-2.585-1.26-.654-.3-.654-.3-.653-.318-2.629-1.2-.654-.29-1.177-.521-3.979-1.681-.073-.029-.116-.043c-1.467-.608-2.948-1.188-4.429-1.767l-.218-.072-.1-.044-.174-.057c-1.292-.493-2.629-.971-3.95-1.449l-.625-.232-.058-.029h-.014c-1.54-.536-3.108-1.072-4.662-1.579l-.174-.043-.044-.015-.1-.043c-1.612-.506-3.209-1.014-4.836-1.492l-3.646-1.028-14.9-34.974-6.332-14.836H418.975L406.34,385.054,397.5,405.787l-2.193.651-.726.217-.741.218-.741.247-.726.217-1.452.479-.726.232-.726.246-.726.247-.726.246-1.452.493-.712.261-.726.261-.712.261-.726.247-.711.275-1.438.536-.712.275-.7.29-.726.275-.7.275-2.135.854-.712.3-.7.29-.712.3-2.106.9-.7.319-.7.3-.7.318-.7.3-2.019.942-.058.014-.682.348-.7.319-.683.333-2.062,1.014-.682.333-.683.348-.682.347-.145.072-1.874.986-.682.362-.668.362-.683.362-.668.362-1.336.739-.668.376-.668.377-.668.376-.653.377-52.2-20.994-45.631,46.059,21.1,53.489-.32.594-.334.594-.32.609-.958,1.811-.305.609-.32.623-.305.607-.3.609-.319.623-.61,1.232-.29.624-.3.608-.305.624-.29.623-.29.623-.015.03-.857,1.854-.291.637-.276.623-.29.637-.276.623-.276.638-.552,1.275-.276.637-1.336,3.217-.1.246-.16.391c-.581,1.45-1.147,2.913-1.684,4.375l-.029.043-.044.145c-.581,1.536-1.133,3.086-1.67,4.623l-.043.145q-1.7,4.911-3.166,9.982l-.77,2.767-.77.333c-.16-.2-.333-.405-.494-.623l-.261.942-33.126,14.4L205.286,570.3v65.037l21.436,9.316,29.322,12.735.218.768.2.768.218.754.232.768.2.753.233.768.232.768.218.753.232.753.247.769.479,1.507.232.739.247.753.247.753.1.29.842,2.448.087.261.261.754.276.738.261.739.727,1.971.1.26.276.739.508,1.318.944,2.347v.015l.29.724.3.725.306.739.3.724.3.738.305.726.319.709.32.724.32.725.32.724.654,1.435.334.725.334.71.334.709.333.725.929,1.912.1.2.363.709.348.71.348.71.712,1.391.378.71.363.7.363.7.378.695.741,1.391.377.7.392.681.377.7-20.216,51.23L300.744,801.6l50.7-20.371.61.333.624.362.625.348,1.874,1.028.624.348,1.031.55,3.282,1.695.784.392.639.319,2.585,1.26.654.3.653.318.654.3,2.629,1.2.654.29,1.176.521,3.979,1.695.073.015.116.057c1.466.594,2.933,1.188,4.429,1.753l.218.087.1.028.16.073c1.307.493,2.643.971,3.965,1.449l.625.218.058.029h.014c1.54.55,3.108,1.072,4.662,1.58l.174.058.044.015.1.029c1.612.521,3.209,1.028,4.836,1.492l3.645,1.028,15.089,35.409,4.894,11.46H485.9l10.079-23.63,10.152-23.8,2.193-.652.726-.217.741-.218.726-.231.741-.232,1.452-.464.726-.247.726-.232.726-.246.726-.247,1.452-.507.712-.246.726-.261.711-.26.726-.261.712-.275,1.438-.536.712-.275.711-.275.711-.276.712-.274,2.12-.87.712-.29.7-.3.712-.29,2.106-.912.7-.3.7-.3.7-.333.7-.3,2.018-.927.058-.028.7-.333.682-.333.683-.333,2.062-1,.682-.348.682-.348.683-.348.145-.072,1.874-.986.682-.347.668-.377.682-.348.668-.377,1.336-.739.668-.377.668-.361.653-.377.668-.377,52.195,20.979,45.631-46.057-21.1-53.476.319-.593.334-.608.319-.609.959-1.811.3-.608.32-.608.305-.609.32-.623.3-.609.61-1.231.29-.623.305-.623.3-.624.291-.623.29-.623.014-.029.857-1.855.291-.623.276-.638.276-.623.29-.637.276-.638.552-1.261.276-.651,1.337-3.2.1-.26.16-.391c.581-1.45,1.147-2.9,1.685-4.375l.029-.043.043-.145c.581-1.521,1.133-3.072,1.67-4.623l.043-.13q1.7-4.912,3.166-10l.77-2.767.77-.333c.16.217.334.405.494.623l.261-.941,34.23-14.865,17.137-7.447V570.3ZM451.811,745.154c-79.614,0-144.154-64.385-144.154-143.808S372.2,457.538,451.811,457.538s144.153,64.385,144.153,143.808-64.54,143.808-144.153,143.808" transform="translate(1926.636 3.008)" fill="#045a9f" fill-rule="evenodd"/>
  </g>
</svg>
